{"title":"Buccaneer's Girl(1950)MP-4[DaScubaDude]","uid":12606756,"size":772133162,"categoryP":"video","categoryS":"movies","magnet":"?xt=urn:btih:914ef86c35dc14b884765d5d60559f87185532a8&amp;dn=Buccaneer%27s+Girl%281950%29MP-4%5BDaScubaDude%5D&amp;tr=udp%3A%2F%2Ftracker.leechers-paradise.org%3A6969&amp;tr=udp%3A%2F%2Fzer0day.ch%3A1337&amp;tr=udp%3A%2F%2Fopen.demonii.com%3A1337&amp;tr=udp%3A%2F%2Ftracker.coppersurfer.tk%3A6969&amp;tr=udp%3A%2F%2Fexodus.desync.com%3A6969","seeders":0,"leechers":1,"uploader":"dascuba","files":1,"time":1445395554,"description":"Buccaneer's Girl (1950)\r\nApproved  |  77 min  |  Action, Adventure, Comedy  |  1 March 1950 (USA)\r\n6.1 Your rating:   -/10   Ratings: 6.1/10 from 211 users   \r\nReviews: 5 user | 3 critic\r\nA New Orleans entertainer falls for a pirate who has another identity.\r\n\r\nDirector: Frederick De Cordova (as Frederick de Cordova)\r\nWriters: Samuel R. Golding (story), Joseph Hoffman, 2 more credits »\r\nStars: Yvonne De Carlo, Philip Friend, Robert Douglas \r\n\r\nGeneral\r\nComplete name        : C:Buccaneer's GirlPIRATES_FRANCHISE_COLLECTION_Title2.mp4\r\nFormat                                   : MPEG-4\r\nFormat profile                           : Base Media\r\nCodec ID                                 : isom\r\nFile size                                : 736 MiB\r\nDuration                                 : 1h 16mn\r\nOverall bit rate                         : 1 339 Kbps\r\nMovie name                               : PIRATES_FRANCHISE_COLLECTION\r\nGenre                                    : Classic_Pirate\r\nWriting application                      : Lavf54.6.100\r\n\r\nVideo\r\nID                                       : 1\r\nFormat                                   : AVC\r\nFormat/Info                              : Advanced Video Codec\r\nFormat profile                           :   \r\nFormat settings, CABAC                   : No\r\nFormat settings, ReFrames                : 6 frames\r\nCodec ID                                 : avc1\r\nCodec ID/Info                            : Advanced Video Coding\r\nDuration                                 : 1h 16mn\r\nBit rate                                 : 1 202 Kbps\r\nWidth                                    : 720 pixels\r\nHeight                                   : 540 pixels\r\nDisplay aspect ratio                     : 4:3\r\nFrame rate mode                          : Constant\r\nFrame rate                               : 29.970 fps\r\nColor space                              : YUV\r\nChroma subsampling                       : 4:2:0\r\nBit depth                                : 8 bits\r\nScan type                                : Progressive\r\nBits/(Pixel*Frame)                       : 0.103\r\nStream size                              : 661 MiB (90%)\r\n\r\nAudio\r\nID                                       : 2\r\nFormat                                   : AAC\r\nFormat/Info                              : Advanced Audio Codec\r\nFormat profile                           : LC\r\nCodec ID                                 : 40\r\nDuration                                 : 1h 16mn\r\nBit rate mode                            : Constant\r\nBit rate                                 : 132 Kbps\r\nChannel(s)                               : 2 channels\r\nChannel positions                        : Front: L R\r\nSampling rate                            : 44.1 KHz\r\nCompression mode                         : Lossy\r\nStream size                              : 71.8 MiB (10%)","torrent":{"xt":"urn:btih:914ef86c35dc14b884765d5d60559f87185532a8","amp;dn":"Buccaneer%27s+Girl%281950%29MP-4%5BDaScubaDude%5D","amp;tr":["udp%3A%2F%2Ftracker.leechers-paradise.org%3A6969","udp%3A%2F%2Fzer0day.ch%3A1337","udp%3A%2F%2Fopen.demonii.com%3A1337","udp%3A%2F%2Ftracker.coppersurfer.tk%3A6969","udp%3A%2F%2Fexodus.desync.com%3A6969"],"infoHash":"914ef86c35dc14b884765d5d60559f87185532a8","infoHashBuffer":{"type":"Buffer","data":[145,78,248,108,53,220,20,184,132,118,93,93,96,85,159,135,24,85,50,168]},"announce":[],"urlList":[]}}